<svg width="90" height="24" viewBox="0 0 90 24" fill="none" xmlns="http://www.w3.org/2000/svg">
<g clip-path="url(#clip0_7_107)">
<mask id="mask0_7_107" style="mask-type:luminance" maskUnits="userSpaceOnUse" x="0" y="0" width="90" height="24">
<path d="M90 0H0V24H90V0Z" fill="white"/>
</mask>
<g mask="url(#mask0_7_107)">
<mask id="mask1_7_107" style="mask-type:luminance" maskUnits="userSpaceOnUse" x="0" y="0" width="29" height="24">
<path d="M0 0H28.571V24H0V0Z" fill="white"/>
</mask>
<g mask="url(#mask1_7_107)">
<path fill-rule="evenodd" clip-rule="evenodd" d="M0 9.524C0 6.99808 1.00342 4.57561 2.78952 2.78952C4.57561 1.00342 6.99808 0 9.524 0H19.048C21.5737 0.000265198 23.996 1.0038 25.7818 2.78987C27.5677 4.57594 28.571 6.99825 28.571 9.524C28.571 12.0497 27.5677 14.4721 25.7818 16.2581C23.996 18.0442 21.5737 19.0477 19.048 19.048H15.418L17.419 21.76C18.199 22.817 17.012 24.202 15.848 23.591L5.467 18.143C3.83214 17.3725 2.4501 16.1529 1.48211 14.6267C0.514121 13.1004 9.38432e-05 11.3303 0 9.523M4 9.523C4.00027 8.05812 4.58237 6.65332 5.6183 5.61759C6.65422 4.58185 8.05912 4 9.524 4H19.048C20.5131 4 21.9181 4.58199 22.9541 5.61794C23.99 6.65389 24.572 8.05894 24.572 9.524C24.572 10.9891 23.99 12.3941 22.9541 13.4301C21.9181 14.466 20.5131 15.048 19.048 15.048H9.524C8.05894 15.048 6.65389 14.466 5.61794 13.4301C4.58199 12.3941 4 10.9891 4 9.524" fill="url(#paint0_radial_7_107)"/>
<path fill-rule="evenodd" clip-rule="evenodd" d="M17.905 11.429C18.4102 11.429 18.8948 11.2283 19.252 10.871C19.6093 10.5138 19.81 10.0292 19.81 9.52399C19.81 9.01875 19.6093 8.53421 19.252 8.17695C18.8948 7.81969 18.4102 7.61899 17.905 7.61899C17.3998 7.61899 16.9152 7.81969 16.558 8.17695C16.2007 8.53421 16 9.01875 16 9.52399C16 10.0292 16.2007 10.5138 16.558 10.871C16.9152 11.2283 17.3998 11.429 17.905 11.429ZM10.476 11.429C10.9812 11.429 11.4658 11.2283 11.823 10.871C12.1803 10.5138 12.381 10.0292 12.381 9.52399C12.381 9.01875 12.1803 8.53421 11.823 8.17695C11.4658 7.81969 10.9812 7.61899 10.476 7.61899C9.97076 7.61899 9.48622 7.81969 9.12896 8.17695C8.7717 8.53421 8.571 9.01875 8.571 9.52399C8.571 10.0292 8.7717 10.5138 9.12896 10.871C9.48622 11.2283 9.97076 11.429 10.476 11.429Z" fill="url(#paint1_linear_7_107)"/>
</g>
</g>
<path d="M42.7599 1.18182H46.6804V16.5227C46.6733 17.929 46.375 19.1399 45.7855 20.1555C45.196 21.1641 44.3722 21.9418 43.3139 22.4886C42.2628 23.0284 41.0376 23.2983 39.6385 23.2983C38.3601 23.2983 37.2095 23.071 36.1868 22.6165C35.1712 22.1548 34.3651 21.473 33.7685 20.571C33.1719 19.669 32.8736 18.5469 32.8736 17.2045H36.8047C36.8118 17.794 36.9396 18.3018 37.1882 18.728C37.4439 19.1541 37.7955 19.4808 38.2429 19.7081C38.6903 19.9354 39.2053 20.049 39.7876 20.049C40.4197 20.049 40.956 19.9176 41.3963 19.6548C41.8366 19.3849 42.1705 18.9872 42.3977 18.4616C42.6321 17.9361 42.7528 17.2898 42.7599 16.5227V1.18182ZM58.0423 23.3196C56.4016 23.3196 54.9847 22.9787 53.7915 22.2969C52.6055 21.608 51.6928 20.6349 51.0536 19.3778C50.4144 18.1136 50.0948 16.6257 50.0948 14.9141C50.0948 13.2308 50.4144 11.7536 51.0536 10.4822C51.6999 9.20383 52.6019 8.20952 53.7596 7.49929C54.9173 6.78196 56.2773 6.4233 57.8398 6.4233C58.8484 6.4233 59.8001 6.58665 60.695 6.91335C61.5969 7.23295 62.3924 7.73011 63.0813 8.40483C63.7773 9.07955 64.3242 9.93892 64.7219 10.983C65.1197 12.0199 65.3185 13.2557 65.3185 14.6903V15.8729H51.9059V13.2734H61.6218C61.6147 12.5348 61.4549 11.8778 61.1424 11.3026C60.8299 10.7202 60.3931 10.2621 59.832 9.92827C59.2781 9.59446 58.6317 9.42756 57.8931 9.42756C57.1048 9.42756 56.4123 9.61932 55.8157 10.0028C55.2191 10.3793 54.7539 10.8764 54.4201 11.4943C54.0934 12.1051 53.9265 12.7763 53.9194 13.5078V15.777C53.9194 16.7287 54.0934 17.5455 54.4414 18.2273C54.7894 18.902 55.2759 19.4205 55.9009 19.7827C56.5259 20.1378 57.2575 20.3153 58.0955 20.3153C58.6566 20.3153 59.1644 20.2372 59.619 20.081C60.0735 19.9176 60.4677 19.6797 60.8015 19.3672C61.1353 19.0547 61.3874 18.6676 61.5579 18.206L65.1587 18.6108C64.9315 19.5625 64.4982 20.3935 63.859 21.1037C63.2269 21.8068 62.4173 22.3537 61.43 22.7443C60.4428 23.1278 59.3136 23.3196 58.0423 23.3196ZM76.7523 6.63636V9.61932H67.3453V6.63636H76.7523ZM69.6678 2.71591H73.5243V18.0781C73.5243 18.5966 73.6025 18.9943 73.7587 19.2713C73.9221 19.5412 74.1351 19.7259 74.3979 19.8253C74.6607 19.9247 74.9519 19.9744 75.2715 19.9744C75.513 19.9744 75.7331 19.9567 75.932 19.9212C76.138 19.8857 76.2942 19.8537 76.4007 19.8253L77.0506 22.8402C76.8446 22.9112 76.5499 22.9893 76.1664 23.0746C75.79 23.1598 75.3283 23.2095 74.7814 23.2237C73.8155 23.2521 72.9455 23.1065 72.1713 22.7869C71.3972 22.4602 70.7828 21.956 70.3283 21.2741C69.8809 20.5923 69.6607 19.7401 69.6678 18.7173V2.71591ZM88.1488 6.63636V9.61932H78.7418V6.63636H88.1488ZM81.0643 2.71591H84.9208V18.0781C84.9208 18.5966 84.9989 18.9943 85.1552 19.2713C85.3185 19.5412 85.5316 19.7259 85.7944 19.8253C86.0572 19.9247 86.3484 19.9744 86.668 19.9744C86.9094 19.9744 87.1296 19.9567 87.3285 19.9212C87.5344 19.8857 87.6907 19.8537 87.7972 19.8253L88.4471 22.8402C88.2411 22.9112 87.9464 22.9893 87.5629 23.0746C87.1864 23.1598 86.7248 23.2095 86.1779 23.2237C85.212 23.2521 84.342 23.1065 83.5678 22.7869C82.7937 22.4602 82.1793 21.956 81.7248 21.2741C81.2773 20.5923 81.0572 19.7401 81.0643 18.7173V2.71591Z" fill="#DEE4E0"/>
</g>
<defs>
<radialGradient id="paint0_radial_7_107" cx="0" cy="0" r="1" gradientUnits="userSpaceOnUse" gradientTransform="translate(8.857 10.19) rotate(53.4018) scale(14.0573 13.9181)">
<stop stop-color="#33FFBB"/>
<stop offset="1" stop-color="#2BD19A"/>
</radialGradient>
<linearGradient id="paint1_linear_7_107" x1="14.191" y1="7.61899" x2="14.191" y2="11.429" gradientUnits="userSpaceOnUse">
<stop stop-color="#33FFBB"/>
<stop offset="1" stop-color="#27BF8D"/>
</linearGradient>
<clipPath id="clip0_7_107">
<rect width="90" height="24" fill="white"/>
</clipPath>
</defs>
</svg>
